# xmcd CD database file
#
# Track frame offsets:
#	150
#	27037
#	40107
#	51182
#	64165
#	79487
#	98517
#	112962
#	126252
#	140175
#	153545
#	167967
#
# Disc length: 2422 seconds
#
# Revision: 0
# Processed by: cddbd v1.5.2PL0 Copyright (c) Steve Scherf et al.
# Submitted via: CDex 1.70beta2
#
DISCID=a309740c
DTITLE=Count Basie - The Swinging Count !
DYEAR=1952
DGENRE=Jazz
TTITLE0=Extended Blues
TTITLE1=I Want A Little Girl
TTITLE2=Oh, Lady Be Good
TTITLE3=Song Of The Islands
TTITLE4=Basie Beat
TTITLE5=She's Funny That Way
TTITLE6=Count's Organ Blues
TTITLE7=K.C. Organ Blues
TTITLE8=Blue And Sentimental
TTITLE9=Stan Shorthair
TTITLE10=As Long As I Live
TTITLE11=Royal Garden Blues
EXTD=YEAR: 1952
EXTT0=
EXTT1=
EXTT2=
EXTT3=
EXTT4=
EXTT5=
EXTT6=
EXTT7=
EXTT8=
EXTT9=
EXTT10=
EXTT11=
PLAYORDER=
